<svg id="visual" viewBox="0 0 900 600" width="900" height="600" xmlns="http://www.w3.org/2000/svg" xmlns:xlink="http://www.w3.org/1999/xlink" version="1.1"><rect x="0" y="0" width="900" height="600" fill="#000000"></rect><g fill="#ffffff"><circle r="14" cx="137" cy="255"></circle><circle r="12" cx="34" cy="192"></circle><circle r="11" cx="348" cy="101"></circle><circle r="12" cx="237" cy="233"></circle><circle r="12" cx="334" cy="32"></circle><circle r="12" cx="616" cy="125"></circle><circle r="11" cx="94" cy="433"></circle><circle r="12" cx="791" cy="22"></circle><circle r="12" cx="252" cy="398"></circle><circle r="12" cx="519" cy="235"></circle><circle r="11" cx="313" cy="506"></circle><circle r="12" cx="553" cy="59"></circle><circle r="12" cx="154" cy="30"></circle><circle r="11" cx="100" cy="405"></circle><circle r="12" cx="573" cy="486"></circle><circle r="11" cx="852" cy="370"></circle><circle r="11" cx="838" cy="518"></circle><circle r="12" cx="355" cy="476"></circle><circle r="11" cx="455" cy="462"></circle><circle r="12" cx="769" cy="456"></circle><circle r="11" cx="387" cy="311"></circle><circle r="11" cx="126" cy="517"></circle><circle r="12" cx="636" cy="375"></circle><circle r="12" cx="399" cy="226"></circle><circle r="12" cx="111" cy="189"></circle><circle r="12" cx="214" cy="549"></circle><circle r="12" cx="178" cy="340"></circle><circle r="12" cx="51" cy="353"></circle><circle r="11" cx="349" cy="538"></circle><circle r="11" cx="719" cy="119"></circle><circle r="11" cx="594" cy="343"></circle><circle r="12" cx="353" cy="587"></circle><circle r="11" cx="148" cy="133"></circle><circle r="11" cx="359" cy="205"></circle><circle r="12" cx="888" cy="309"></circle><circle r="11" cx="893" cy="518"></circle><circle r="12" cx="480" cy="27"></circle><circle r="11" cx="298" cy="122"></circle><circle r="11" cx="67" cy="69"></circle><circle r="12" cx="818" cy="183"></circle><circle r="11" cx="96" cy="93"></circle><circle r="12" cx="258" cy="463"></circle><circle r="11" cx="38" cy="121"></circle><circle r="12" cx="773" cy="539"></circle><circle r="12" cx="723" cy="51"></circle><circle r="12" cx="807" cy="594"></circle><circle r="12" cx="131" cy="473"></circle><circle r="12" cx="499" cy="102"></circle></g></svg>